<?xml version="1.0" encoding="UTF-8"?>
<svg xmlns="http://www.w3.org/2000/svg" id="Layer_1" data-name="Layer 1" viewBox="0 0 865.76 682.89">
  <g>
    <g>
      <line x1="754.97" y1="207.41" x2="810.95" y2="261.99" fill="none" stroke="#002346" stroke-linecap="round" stroke-linejoin="round"></line>
      <circle cx="737.58" cy="237.15" r="16.44" transform="translate(-24.01 94.88) rotate(-7.24)" fill="#232323" stroke="#002346" stroke-miterlimit="10"></circle>
      <line x1="764.44" y1="207.41" x2="820.41" y2="261.99" fill="none" stroke="#002346" stroke-linecap="round" stroke-linejoin="round"></line>
      <line x1="778.03" y1="370.93" x2="812.54" y2="261.99" fill="none" stroke="#002346" stroke-linecap="round" stroke-linejoin="round"></line>
      <line x1="784.82" y1="370.93" x2="820.41" y2="261.99" fill="none" stroke="#002346" stroke-linecap="round" stroke-linejoin="round"></line>
      <rect x="806.24" y="260.05" width="18.65" height="10.62" rx="4.16" ry="4.16" fill="#4389c6" stroke="#002346" stroke-miterlimit="10"></rect>
      <rect x="762.61" y="359.98" width="34.72" height="14.79" fill="#91d7f0" stroke="#0d2445" stroke-miterlimit="10"></rect>
      <rect x="797.34" y="359.98" width="14.29" height="14.79" transform="translate(1608.96 734.75) rotate(180)" fill="#4389c6" stroke="#002346" stroke-miterlimit="10"></rect>
      <path d="M745.74,209.33l16.68,12.87s9.55-13.46,1.73-19.49c-7.82-6.03-18.42,6.62-18.42,6.62Z" fill="#4389c6" stroke="#002346" stroke-miterlimit="10"></path>
      <path d="M717.28,216.02l45.9,35.41s14.36-21.58-7.15-38.18c-21.51-16.6-38.75,2.77-38.75,2.77Z" fill="#91d7f0" stroke="#0d2445" stroke-miterlimit="10"></path>
    </g>
    <g>
      <rect x="397.07" y="315.4" width="94.56" height="59.37" fill="#fff" stroke="#002346" stroke-miterlimit="10"></rect>
      <rect x="491.63" y="315.4" width="48.52" height="59.37" transform="translate(1031.78 690.17) rotate(180)" fill="#e6e6e6" stroke="#002346" stroke-miterlimit="10"></rect>
      <rect x="371.58" y="296.04" width="94.56" height="19.36" fill="#fff" stroke="#002346" stroke-miterlimit="10"></rect>
      <rect x="466.14" y="296.04" width="48.52" height="19.36" transform="translate(980.81 611.44) rotate(180)" fill="#e6e6e6" stroke="#002346" stroke-miterlimit="10"></rect>
      <polygon points="479.53 332.73 434.94 332.73 467.35 350.3 479.53 332.73" fill="#e6e6e6" stroke="#002346" stroke-miterlimit="10"></polygon>
      <polygon points="502.51 350.3 513.46 360.9 534.26 350.3 502.51 350.3" fill="#fff" stroke="#002346" stroke-miterlimit="10"></polygon>
      <line x1="488.82" y1="332.59" x2="416.48" y2="332.59" fill="none" stroke="#002346" stroke-linecap="round" stroke-linejoin="round"></line>
      <line x1="455.52" y1="362.28" x2="405.14" y2="362.28" fill="none" stroke="#002346" stroke-linecap="round" stroke-linejoin="round"></line>
      <line x1="491.63" y1="350.3" x2="537.7" y2="350.3" fill="none" stroke="#002346" stroke-linecap="round" stroke-linejoin="round"></line>
      <line x1="383.91" y1="304.66" x2="466.14" y2="304.66" fill="none" stroke="#002346" stroke-linecap="round" stroke-linejoin="round"></line>
      <line x1="507.14" y1="304.66" x2="466.14" y2="304.66" fill="none" stroke="#002346" stroke-linecap="round" stroke-linejoin="round"></line>
    </g>
    <g>
      <path d="M762.74,293.29h-100.21c-2.59,0-4.91,1.81-5.81,4.54l-23.9,72.29h-68.55c-2.47,0-4.46,2.24-4.46,5.01h180.78l25.35-76.68c.83-2.5-.82-5.16-3.2-5.16Z" fill="#4389c6" stroke="#002346" stroke-miterlimit="10"></path>
      <path d="M745.52,375.12h-109.42l25.55-77.3c.9-2.73,3.22-4.54,5.81-4.54h100.21c2.38,0,4.02,2.66,3.2,5.16l-25.35,76.68Z" fill="#91d7f0" stroke="#0d2445" stroke-miterlimit="10"></path>
      <path d="M716.45,335.43c0,3.44-3.3,6.23-7.38,6.23s-7.38-2.79-7.38-6.23,3.3-6.23,7.38-6.23,7.38,2.79,7.38,6.23Z" fill="#4389c6" stroke="#002346" stroke-miterlimit="10"></path>
    </g>
    <g>
      <path d="M744.15,345.1h11.07c2.06,0,3.74,1.67,3.74,3.74v10.81c0,2.06-1.67,3.74-3.74,3.74h-11.07v-18.28h0Z" fill="none" stroke="#002346" stroke-linecap="round" stroke-linejoin="round"></path>
      <rect x="729.89" y="367.6" width="18.64" height="6.36" fill="#a4c639" stroke="#002346" stroke-miterlimit="10"></rect>
      <line x1="729.89" y1="370.78" x2="748.53" y2="370.78" fill="#a4c639" stroke="#002346" stroke-miterlimit="10"></line>
      <path d="M726.3,338.27h25.81v28.99c0,2.07-1.68,3.76-3.76,3.76h-18.3c-2.07,0-3.76-1.68-3.76-3.76v-28.99h0Z" fill="#a4c639" stroke="#002346" stroke-miterlimit="10"></path>
    </g>
    <g>
      <line x1="388.63" y1="374.77" x2="833.14" y2="374.77" fill="none" stroke="#002346" stroke-linecap="round" stroke-linejoin="round"></line>
      <g>
        <line x1="409.65" y1="374.93" x2="480.79" y2="615.42" fill="none" stroke="#002346" stroke-linecap="round" stroke-linejoin="round"></line>
        <line x1="452.35" y1="374.93" x2="381.22" y2="615.42" fill="none" stroke="#002346" stroke-linecap="round" stroke-linejoin="round"></line>
      </g>
      <g>
        <line x1="774.3" y1="374.93" x2="845.43" y2="615.42" fill="none" stroke="#002346" stroke-linecap="round" stroke-linejoin="round"></line>
        <line x1="817" y1="374.93" x2="745.87" y2="615.42" fill="none" stroke="#002346" stroke-linecap="round" stroke-linejoin="round"></line>
      </g>
    </g>
  </g>
  <g>
    <circle cx="764.5" cy="82.41" r="57" fill="#e3e4e5" stroke="#002346" stroke-miterlimit="10"></circle>
    <circle cx="764.5" cy="82.41" r="49" fill="#fff" stroke="#002346" stroke-miterlimit="10"></circle>
    <polyline points="760.5 58.41 760.5 90.41 784.5 90.41" fill="none" stroke="#002346" stroke-linecap="round" stroke-linejoin="round"></polyline>
  </g>
  <g>
    <circle cx="377.01" cy="228.48" r="6.99" fill="#232323" stroke="#002346" stroke-miterlimit="10"></circle>
    <g>
      <rect x="51.96" y="83.55" width="363.28" height="19.58" fill="#e3e4e5" stroke="#002346" stroke-miterlimit="10"></rect>
      <rect x="51.96" y="122.88" width="363.28" height="20.66" fill="#e3e4e5" stroke="#002346" stroke-miterlimit="10"></rect>
      <rect x="51.96" y="143.54" width="363.28" height="20.67" fill="#fff" stroke="#002346" stroke-miterlimit="10"></rect>
      <path d="M42.64,61.64v462.06H426.44V61.64H42.64ZM412.96,501.32H54.87V83.55H412.96V501.32Z" fill="#fff" stroke="#002346" stroke-miterlimit="10"></path>
      <line x1="376.62" y1="164.95" x2="376.62" y2="221.57" fill="none" stroke="#002346" stroke-linecap="round" stroke-linejoin="round"></line>
      <rect x="20.33" y="523.47" width="431.49" height="33.57" fill="#fff" stroke="#002346" stroke-miterlimit="10"></rect>
    </g>
  </g>
  <g>
    <rect x="129.92" y="26.21" width="338.57" height="632" rx="32.09" ry="32.09" fill="#428cca" stroke="#0d2445" stroke-miterlimit="10"></rect>
    <rect x="148.31" y="39.59" width="308.89" height="604.41" rx="32.09" ry="32.09" fill="#fff" stroke="#002346" stroke-miterlimit="10"></rect>
    <circle cx="174.64" cy="60.07" r="8.36" fill="#f2f2f2" stroke="#002346" stroke-miterlimit="10"></circle>
    <circle cx="198.47" cy="58.81" r="8.36" fill="#f2f2f2" stroke="#002346" stroke-miterlimit="10"></circle>
    <rect x="204.32" y="20.36" width="42.63" height="5.85" fill="#428cca" stroke="#0d2445" stroke-miterlimit="10"></rect>
    <rect x="126.99" y="78.04" width="12.54" height="79.42" rx="6.27" ry="6.27" fill="#91d7f0" stroke="#0d2445" stroke-miterlimit="10"></rect>
    <rect x="127.41" y="163.73" width="12.54" height="79.42" rx="6.27" ry="6.27" fill="#91d7f0" stroke="#0d2445" stroke-miterlimit="10"></rect>
    <g>
      <path d="M594.58,657.32s-1.18,3.29,1.7,5.21h43.16c1.6,0,2.9-1.3,2.9-2.9v-4.77l-5.76-4.8h-21.18l-20.82,7.27Z" fill="#0d2445" stroke="#0d2445" stroke-miterlimit="10"></path>
      <rect x="529.1" y="659.65" width="63.34" height="2.88" fill="#0d2445" stroke="#0d2445" stroke-miterlimit="10"></rect>
      <rect x="616.44" y="625.1" width="21.11" height="23.03" fill="#f0b1bf" stroke="#002346" stroke-linecap="round" stroke-linejoin="round"></rect>
      <path d="M642.35,660.61h-44.16c-2.3,0-4.07-2.16-3.49-4.38,.12-.45,.32-.91,.63-1.38l17.61-15.85c1.59-1.43,3.69-2.23,5.82-2.01,.03,0,.07,0,.1,.01,1.71,.2,3.11,1.43,3.61,3.08,.45,1.47,1.62,3.68,4.69,5.17,1.5,.73,3.25,.75,4.8,.13l4.44-1.78c1.92-.77,3.46,0,3.86,1.42,.46,1.67,1.05,4,1.56,6.64,.37,1.92,.53,3.88,.53,5.84v3.1Z" fill="#232323" stroke="#002346" stroke-linecap="round" stroke-linejoin="round"></path>
      <rect x="562.69" y="627.02" width="23.99" height="22.07" fill="#f0b1bf" stroke="#002346" stroke-linecap="round" stroke-linejoin="round"></rect>
      <path d="M560.34,636.96l-29.32,15.98s-2.88,1.92-1.92,6.72h63.36s-.02-16-5.78-17.12l-22.07,3.68s4.89-11.8-4.27-9.26Z" fill="#232323" stroke="#002346" stroke-linecap="round" stroke-linejoin="round"></path>
      <path d="M562.69,379.77l-15.93,110.2c-.26,1.78-.3,3.59-.12,5.39l13.17,133.58h44.15l-7.5-123.71c-.12-1.97,.02-3.95,.42-5.88l10.91-52.75,5.55,182.34h44.36l3.84-247.6-5.6-4.63h-29.04l-25.95-20.51h-11.16l-27.1,23.58Z" fill="#a4c639" stroke="#002346" stroke-linecap="round" stroke-linejoin="round"></path>
      <line x1="602.04" y1="393.81" x2="607.8" y2="446.6" fill="none" stroke="#002346" stroke-linecap="round" stroke-linejoin="round"></line>
      <path d="M651.22,411.09h-2.88v-7.58c0-5.08,4.13-9.21,9.21-9.21h26.44c5.08,0,9.21,4.13,9.21,9.21v5.66h-2.88v-5.66c0-3.49-2.84-6.34-6.34-6.34h-26.44c-3.49,0-6.34,2.84-6.34,6.34v7.58Z" fill="#fff" stroke="#002346" stroke-linecap="round" stroke-linejoin="round"></path>
      <path d="M695.06,301.86l-27.94-73.36c-1.1-2.88-3.45-5.11-6.39-6.04l-40.46-12.91-24.95,24.95-12.48-15.36-19.87,11.78c-3.84,2.27-6.5,6.09-7.31,10.48l-11.08,60.17c-.58,3.13-3.75,5.05-6.79,4.11l-44.2-13.6-5.76,33.59,42.23,17.27s23.99,7.68,32.63-9.6v46.42h33.59l3.84-20.51,4.89,20.51h53v3.37s9.29,8.75,30.4,8.75l7.42-84.46c.17-1.89-.1-3.8-.78-5.58Zm-35.44,41.09l-3.36-34.55,6.23,1.92-2.88,32.63Z" fill="#232323" stroke="#002346" stroke-linecap="round" stroke-linejoin="round"></path>
      <path d="M576.97,222.63l-2.76,10.91,6.72,2.88-6.72,13.76s7.67,26.51,24.92,58.15c0,.01,.03,0,.02,0l-7.19-56.61-5.3-22.06-3.81-10.51-5.88,3.49Z" fill="#91d7f0" stroke="#0d2445" stroke-linecap="round" stroke-linejoin="round"></path>
      <polygon points="588.99 210.06 588.99 215.46 599.81 215.46 613.56 206.67 608.76 193.5 607.26 182.44 599.49 177.88 588.99 210.06" fill="#f0b1bf" stroke="#002346" stroke-linecap="round" stroke-linejoin="round"></polygon>
      <line x1="562.69" y1="333.35" x2="562.69" y2="271.94" fill="none" stroke="#002346" stroke-linecap="round" stroke-linejoin="round"></line>
      <line x1="600.95" y1="353.94" x2="600.95" y2="311.66" fill="none" stroke="#002346" stroke-linecap="round" stroke-linejoin="round"></line>
      <line x1="642.39" y1="271.94" x2="659.38" y2="309.36" fill="none" stroke="#002346" stroke-linecap="round" stroke-linejoin="round"></line>
      <line x1="659.62" y1="342.95" x2="658.01" y2="379.77" fill="none" stroke="#002346" stroke-linecap="round" stroke-linejoin="round"></line>
      <path d="M660.73,222.46s-30.49,10.07-20.6,41.29" fill="none" stroke="#002346" stroke-linecap="round" stroke-linejoin="round"></path>
      <path d="M493.32,293.68l-13.73-2.35-4.49-3.16c-1.7-1.2-3.74-1.85-5.82-1.85h-10.93c-2.03,0-3.68,1.65-3.68,3.68h0c0,2.03,1.65,3.68,3.68,3.68h4.14c.8,0,1.45,.66,1.43,1.46l-.06,3.68c0,.57-.35,1.08-.88,1.3-4.77,1.99-27.53,11.86-24.09,17.88,0,0-4.32,5.52,3.6,5.64,0,0-.69,4.68,9.85,0,0,0,2.25,3.72,9.27,0l22.9-10.44h5.46l3.35-19.51Z" fill="#f0b1bf" stroke="#002346" stroke-linecap="round" stroke-linejoin="round"></path>
      <path d="M626.02,211.38l6.73,11.6-6.73,8.26,3.36,6.8s-12.01,48.15-30.24,70.29l7.69-53.68,8.64-29.75,4.8-15.36,5.75,1.84Z" fill="#91d7f0" stroke="#0d2445" stroke-linecap="round" stroke-linejoin="round"></path>
      <path d="M588.99,215.46l-6.14,3.69s0,42.23,16.32,89.25c0,0,18.23-32.63,21.11-98.85l-6.72-2.88-13.75,8.79h-10.82Z" fill="#fff" stroke="#002346" stroke-linecap="round" stroke-linejoin="round"></path>
      <polygon points="582.85 219.15 588.99 228.81 597.65 216.42 604.92 225.86 620.27 214.02 620.27 209.55 613.56 206.67 599.81 215.46 588.99 215.46 582.85 219.15" fill="#f2f2f2" stroke="#002346" stroke-linecap="round" stroke-linejoin="round"></polygon>
      <path d="M593.25,222.72l3.03,3.15-.05,73.6,2.92,8.86s7.47-15.61,9.5-24.57l-8.53-57.9,1.83-3.86-4.29-5.58-4.4,6.3Z" fill="#a4c639" stroke="#002346" stroke-linecap="round" stroke-linejoin="round"></path>
      <rect x="570.62" y="156.88" width="32.09" height="53.54" rx="16.04" ry="16.04" transform="translate(-27.46 156.1) rotate(-14.81)" fill="#f0b1bf" stroke="#002346" stroke-linecap="round" stroke-linejoin="round"></rect>
      <path d="M635.63,471.89v36.13l-15.43-8.91,.08-71.71c-.08-1.02-.1-1.96-.06-2.81,.21-4.52,1.91-6.92,3.67-8.21,2.14-1.55,5.18-.83,6.41,1.52,1.79,3.4,2.27,7.9,2.41,10.1,.05,.83,.05,1.32,.05,1.32v42.56h2.88Z" fill="#fff" stroke="#002346" stroke-linecap="round" stroke-linejoin="round"></path>
      <polygon points="635.63 508.02 728.72 501.3 727.31 469.71 635.63 471.89 635.63 508.02" fill="#fff" stroke="#002346" stroke-linecap="round" stroke-linejoin="round"></polygon>
      <rect x="680.75" y="461.91" width="9.58" height="17.27" transform="translate(-40.67 65.58) rotate(-5.32)" fill="#232323" stroke="#002346" stroke-linecap="round" stroke-linejoin="round"></rect>
      <rect x="642.35" y="411.09" width="12.48" height="6.72" fill="#0d2445" stroke="#0d2445" stroke-miterlimit="10"></rect>
      <rect x="684.58" y="409.17" width="12.48" height="6.72" fill="#0d2445" stroke="#0d2445" stroke-miterlimit="10"></rect>
      <path d="M626.35,415.92c1.21,.23,5.58,1.86,6.4,13.4v42.56l97.89-2.25s-3.84-41.27-18.23-56.62l-86.05,2.87s-.04,.04,0,.05Z" fill="#91d7f0" stroke="#0d2445" stroke-linecap="round" stroke-linejoin="round"></path>
      <path d="M632.7,428l-12.49-3.41c.21-4.52,1.91-6.92,3.67-8.21,2.14-1.55,5.18-.83,6.41,1.52,1.79,3.4,2.27,7.9,2.41,10.1Z" fill="#0d2445" stroke="#0d2445" stroke-miterlimit="10"></path>
      <path d="M658.01,383.14s-8.95,7.79-7.03,13.55l3.84-1.92c1.09-.52,3.43-1.73,3.68-.55h0c.18,.88-.28,1.76-1.11,2.1l-4.28,1.79c-1.25,.53-2.23,1.63-2.42,2.98-.14,.97,.09,2.12,1.24,3.27,0,0,1.58,1.92,6.07,0l3.53-2.2s2.88,4.12,7.68,1.24c0,0,3.84,.96,7.68-.96,0,0,6.72,.96,7.68-3.84l1.36-6.72s-17.67,0-27.92-8.75Z" fill="#f0b1bf" stroke="#002346" stroke-linecap="round" stroke-linejoin="round"></path>
      <line x1="442.49" y1="323.63" x2="461.62" y2="313.2" fill="none" stroke="#002346" stroke-linecap="round" stroke-linejoin="round"></line>
      <line x1="452.34" y1="323.63" x2="465.52" y2="316.56" fill="none" stroke="#002346" stroke-linecap="round" stroke-linejoin="round"></line>
      <path d="M569.52,181.08s-16.25-8.48-6.56-16.54c0,0-12.14-10.92,13.69-19.96,0,0,18.86-6.19,26.15,4.43,0,0,14.81,3.04,10.48,18.05l-1.55,16.63c-.2,1.62-1.5,2.88-3.12,3.03l-4.79,.45-4.58-16.53s-4.88-.43-4.54-9.51c0,0-5.26,6.87-12.3,5.1,0,0-6.5,9.14-14.9,7.98l2.03,6.87Z" fill="#0d2445" stroke="#0d2445" stroke-miterlimit="10"></path>
      <path d="M603.71,147.27l.82,.13s1.33-3.75,2.73-5.21l-4.05-.61s-.61,2.16,.49,5.69Z" fill="#0d2445" stroke="#0d2445" stroke-linecap="round" stroke-linejoin="round"></path>
      <ellipse cx="604.92" cy="177.88" rx="3.84" ry="5.76" fill="#f0b1bf" stroke="#002346" stroke-linecap="round" stroke-linejoin="round"></ellipse>
    </g>
    <g>
      <path d="M306.14,145.33s-33.65-11.7-37.88,23c-4.23,34.7,48.74,49.06,56.54,18.8,7.79-30.26-18.66-41.8-18.66-41.8Z" fill="#002346" stroke="#002346" stroke-miterlimit="10"></path>
      <path d="M360.67,165.54s9.81-10.12,7.63-26.4c-1.47-11.04-6.24-14.75-6.24-14.75,0,0,7.95-14.73-14.23-14.57-22.17,.16-35.57,10.58-35.57,10.58,0,0-9.95-5.31-14.89,6.33-4.94,11.65-.99,29.21-.99,29.21l64.28,9.6Z" fill="#002346" stroke="#002346" stroke-miterlimit="10"></path>
      <path d="M282.15,528c-3.08,18.92-25.81,74.06-25.81,74.06-5.7,13.18-10.08,27.78-13.45,41.93h-35.55v-25.59c0-36.45,8.79-52.78,8.79-52.78l17.58-38.89,48.44,1.27Z" fill="#f0b1bf" stroke="#002346" stroke-linecap="round" stroke-linejoin="round"></path>
      <path d="M365.66,594.53l-4.59,49.46h-36.78c-3.87-31.66-3.15-63.48-2.27-80.99,.37-7,1.24-13.96,2.47-20.87,1.72-9.59,.68-13.02,.68-13.02l.74,.03,45.59,1.3c.81,16.33-5.84,64.09-5.84,64.09Z" fill="#f0b1bf" stroke="#002346" stroke-linecap="round" stroke-linejoin="round"></path>
      <path d="M375.72,530.44l-144.51-3.77c6.28-92.99,24.77-150.91,24.77-150.91h.01c6.35,3.07,27.09,11.18,66.95,10.17,0,0,28.9,0,45.24-6.28,.74,2.38,1.39,5.03,1.96,7.85,.09,.45,.18,.89,.26,1.34,4.02,21.16,3.9,51.23,3.9,51.23l1.42,90.36Z" fill="#232323" stroke="#002346" stroke-miterlimit="10"></path>
      <path d="M420.96,357.02c-1.26,38.96-22.62,64.09-22.62,64.09-4.42-21-23.41-30.34-27.94-32.27-.09-.45-.18-.89-.26-1.34l5.38-7.16c.93-1.26,1.37-2.81,1.21-4.37l-3.12-30.08c-.11-1.12-.64-2.1-1.42-2.8-.78-.7-1.82-1.13-2.94-1.13-2.59,0-4.61,2.24-4.36,4.83l3.29,32.87c-16.34,6.28-45.24,6.28-45.24,6.28-39.86,1.02-60.61-7.1-66.95-10.17h-.01c-1.46-.7-2.15-1.14-2.15-1.14-1.26-12.57,12.57-38.96,12.57-38.96-2.51-3.77-2.51-16.34-2.51-16.34l-2.51-52.78c0-30.16,4.94-42.73,4.94-42.73,3.67-11.31,36.53-18.85,36.53-18.85l11.31,7.54,13.82,40.21,10.25-30.21,9.85-12.52,16.35,8.66c6.36,3.37,11.61,8.49,15.14,14.77l25.06,44.43c15.08,31.42,16.34,79.17,16.34,79.17Z" fill="#a4c639" stroke="#002346" stroke-linecap="round" stroke-linejoin="round"></path>
      <path d="M418.96,284.81l-30.67,13.15h-8.8s-6.28,11.31-5.03,26.39h21.55l29.97,13.82s8.8,2.51,8.8-2.51c0,0,6.34,1.88,7.57-4.08,0,0,.06,.02,.17,.06,5.13,1.82,9.27-4.82,5.29-8.54-.46-.43-1.03-.86-1.71-1.27,0,0,5.03-3.77-1.26-7.54l-31.64-15.71,9.87-4.85c2.34-1.15,3.38-3.94,2.35-6.34h0c-1.07-2.49-3.95-3.65-6.45-2.58Z" fill="#f0b1bf" stroke="#002346" stroke-linecap="round" stroke-linejoin="round"></path>
      <line x1="446.09" y1="321.84" x2="427.24" y2="313.04" fill="none" stroke="#002346" stroke-linecap="round" stroke-linejoin="round"></line>
      <line x1="442.35" y1="331.58" x2="420.96" y2="321.84" fill="none" stroke="#002346" stroke-linecap="round" stroke-linejoin="round"></line>
      <line x1="434.78" y1="335.66" x2="416.36" y2="326.71" fill="none" stroke="#002346" stroke-linecap="round" stroke-linejoin="round"></line>
      <path d="M375.72,297.96h-62.04l-10.85-37.72" fill="none" stroke="#002346" stroke-linecap="round" stroke-linejoin="round"></path>
      <path d="M374.46,324.35s0,8.84,3.5,14.02c2.37,3.5,7.55,3.03,9.39-.77,1.28-2.64,2.19-6.79,1.43-13.24h-14.33Z" fill="#0d2445" stroke="#0d2445" stroke-miterlimit="10"></path>
      <path d="M266.39,335.66s3.77,10.05,18.85,11.31l75.4-1.26" fill="none" stroke="#002346" stroke-linecap="round" stroke-linejoin="round"></path>
      <path d="M293.96,207.41l-6.21,12.64,12.57,2.51-6.28,13.27s23.82,18.09,33.27,31.94c0,0-16.94-25.11-24.48-62.8l-8.87,2.44Z" fill="#91d7f0" stroke="#0d2445" stroke-linecap="round" stroke-linejoin="round"></path>
      <path d="M348.07,210l12.57,12.57-7.54,8.8,7.54,11.15s-10.87,9.93-21.77,32.69c0,0,10.46-32.54,9.2-65.21Z" fill="#91d7f0" stroke="#0d2445" stroke-linecap="round" stroke-linejoin="round"></path>
      <path d="M364.41,255.23s10.96,22.62,2.97,42.73" fill="none" stroke="#002346" stroke-linecap="round" stroke-linejoin="round"></path>
      <path d="M369.44,388.44l-5.03,3.77s-9.28-3.33-16.42-3.89c-2.38-.19-4.4,1.69-4.4,4.07h0c0,2.03,1.49,3.77,3.5,4.04,1.62,.22,3.76,.64,6.29,1.43,0,0-20.46,16-16.03,21.51,0,0,2.16,2.03,7.07,0,0,0,.8,4.05,5.8,2.83,1.62-.4,3.07-1.3,4.26-2.47l1.14-1.13s3.77,6.28,10.05,0l6.28-8.8s11.61,6.39,17.12,1.94l4.19-3.41s-7.49-13.6-23.82-19.89Z" fill="#f0b1bf" stroke="#002346" stroke-linecap="round" stroke-linejoin="round"></path>
      <path d="M344.42,419.37s4.91-10.83,12.45-17.11" fill="none" stroke="#002346" stroke-linecap="round" stroke-linejoin="round"></path>
      <path d="M355.61,418.6s2.42-7.61,9.38-13.23" fill="none" stroke="#002346" stroke-linecap="round" stroke-linejoin="round"></path>
      <path d="M384.41,413.3s8.9,14.1,13.93,7.81c0,0-1.36-7.98-5.08-12.79l-4.19,3.41s-.99,1.29-4.65,1.56Z" fill="#0d2445" stroke="#0d2445" stroke-miterlimit="10"></path>
      <path d="M341.79,206.23c-3.77,1.26-7.54,2.51-7.54,2.51l-2.51,15.08-3.77-15.08c-13.82-2.51-18.85-7.54-18.85-7.54,5.03-6.28,6.04-15.76,6.04-15.76l10.29-5.14,12.77,19.33c-.2,2.83,3.57,6.6,3.57,6.6Z" fill="#f0b1bf" stroke="#002346" stroke-linecap="round" stroke-linejoin="round"></path>
      <path d="M336.76,281.62c-27.65-36.44-33.93-76.65-33.93-76.65l6.28-3.77s5.03,5.03,18.85,7.54l3.77,15.08,2.51-15.08s3.77-1.26,7.54-2.51l6.28,3.77c1.26,37.7-11.31,71.63-11.31,71.63Z" fill="#fff" stroke="#002346" stroke-linecap="round" stroke-linejoin="round"></path>
      <rect x="315.94" y="126.16" width="44.55" height="73.76" rx="22.27" ry="22.27" transform="translate(29.34 -50.43) rotate(8.91)" fill="#f0b1bf" stroke="#002346" stroke-linecap="round" stroke-linejoin="round"></rect>
      <path d="M309.25,159.18s19.18,10.31,33.81-5.67c12.83-14.02,10-14.95,10-14.95,1.85,.86,4.66,2.45,7.3,5.3,3.7,3.99,5.06,8.28,5.58,10.45,3.93-7.72,2.92-12.8,2.16-15.31-1-3.32-3.2-6.77-7.41-9.91-6.96-5.19-10.07-11.44-10.07-11.44l-34.5,3.58-6.11,33.91-.76,4.03Z" fill="#002346" stroke="#002346" stroke-miterlimit="10"></path>
      <ellipse cx="312.26" cy="161.62" rx="6.91" ry="9.42" fill="#f0b1bf" stroke="#002346" stroke-linecap="round" stroke-linejoin="round"></ellipse>
    </g>
    <g id="fff">
      <path d="M562.43,120.41c2.07-3.08,3.19-6.69,3.22-10.4,0-13.17-14.47-23.85-32.3-23.85s-32.28,10.68-32.28,23.85,14.45,23.85,32.28,23.85c8.65,0,16.49-2.51,22.28-6.6l11.13,2.83-4.32-9.68Z" fill="#a4c639" stroke="#002346" stroke-linecap="round" stroke-linejoin="round"></path>
      <path d="M521.74,110.01c0,1.85-1.5,3.34-3.34,3.34s-3.34-1.5-3.34-3.34,1.5-3.34,3.34-3.34,3.34,1.5,3.34,3.34Z" fill="#fff" stroke="#002346" stroke-miterlimit="10"></path>
      <circle cx="533.36" cy="110.01" r="3.35" fill="#fff" stroke="#002346" stroke-miterlimit="10"></circle>
      <path d="M551.67,110.01c0,1.85-1.5,3.34-3.34,3.34s-3.34-1.5-3.34-3.34,1.5-3.34,3.34-3.34,3.34,1.5,3.34,3.34Z" fill="#fff" stroke="#002346" stroke-miterlimit="10"></path>
    </g>
    <path d="M435.83,94.83c-1.86,15.59-11.89,18.39-13.58,22.57-.85,2.62-1.56,5.28-2.11,7.98h-16.3c-.54-2.7-1.24-5.36-2.1-7.98-1.67-4.18-11.7-7.06-13.46-22.66-1.18-10.25,6.57-26.42,23.82-26.37,17.25,.04,24.94,16.23,23.72,26.47Z" fill="#232323" stroke="#002346" stroke-linecap="round" stroke-linejoin="round"></path>
    <line x1="402.81" y1="100.58" x2="407.68" y2="125.7" fill="none" stroke="#002346" stroke-linecap="round" stroke-linejoin="round"></line>
    <line x1="421.41" y1="100.74" x2="415.08" y2="125.54" fill="none" stroke="#002346" stroke-linecap="round" stroke-linejoin="round"></line>
    <rect x="409.69" y="116.97" width="4.62" height="20.11" transform="translate(283.79 538.65) rotate(-89.84)" fill="#e6e6e6" stroke="#002346" stroke-linecap="round" stroke-linejoin="round"></rect>
    <rect x="410.07" y="121.24" width="3.82" height="20.11" transform="translate(279.71 542.96) rotate(-89.86)" fill="#e6e6e6" stroke="#002346" stroke-linecap="round" stroke-linejoin="round"></rect>
    <rect x="409.82" y="125.5" width="4.34" height="20.11" transform="translate(275.4 547.2) rotate(-89.86)" fill="#e6e6e6" stroke="#002346" stroke-linecap="round" stroke-linejoin="round"></rect>
    <path d="M403.4,103.24s1.98,5.66,4.68,2.39c0,0,2.35-2.55,1.98-5-.12-.79-.78-1.43-1.59-1.45-.67-.02-1.39,.38-1.49,2.06-.05,.73,.06,1.46,.24,2.17,.27,1.06,.82,2.65,1.83,3.91,1.46,1.81,4.33,1.74,5.64-.17,.68-.99,1.31-2.46,1.67-4.65,0,0,.11-1.16-.04-2.18-.15-1.08-1.65-1.33-2.09-.33s-.65,2.61,.56,4.88c1.14,2.12,4.27,2.18,5.36,.03,.22-.43,.42-.95,.59-1.57" fill="none" stroke="#002346" stroke-linecap="round" stroke-linejoin="round"></path>
    <line x1="412.84" y1="63.6" x2="412.84" y2="55.54" fill="none" stroke="#002346" stroke-linecap="round" stroke-linejoin="round"></line>
    <line x1="427.65" y1="66.95" x2="432.02" y2="60.19" fill="none" stroke="#002346" stroke-linecap="round" stroke-linejoin="round"></line>
    <line x1="438.14" y1="77.17" x2="445.53" y2="73.98" fill="none" stroke="#002346" stroke-linecap="round" stroke-linejoin="round"></line>
    <line x1="441.81" y1="92.58" x2="449.86" y2="92.56" fill="none" stroke="#002346" stroke-linecap="round" stroke-linejoin="round"></line>
    <line x1="374.81" y1="91.58" x2="382.86" y2="91.56" fill="none" stroke="#002346" stroke-linecap="round" stroke-linejoin="round"></line>
    <line x1="380.41" y1="72.46" x2="387.26" y2="76.69" fill="none" stroke="#002346" stroke-linecap="round" stroke-linejoin="round"></line>
    <line x1="393.82" y1="59.08" x2="397.85" y2="66.06" fill="none" stroke="#002346" stroke-linecap="round" stroke-linejoin="round"></line>
    <line x1="378.42" y1="110.71" x2="385.25" y2="106.43" fill="none" stroke="#002346" stroke-linecap="round" stroke-linejoin="round"></line>
    <line x1="437.2" y1="107.84" x2="444.47" y2="111.31" fill="none" stroke="#002346" stroke-linecap="round" stroke-linejoin="round"></line>
  </g>
</svg>
