<svg xmlns="http://www.w3.org/2000/svg" viewBox="0 0 865.76 682.89"><circle cx="301.07" cy="128.2" r="36.66" fill="#a4c639"/><path d="M369.72,219.83a87.82,87.82,0,0,1-137.23.6c6.12-28.78,34.54-50.55,68.68-50.55C335.07,169.88,363.34,191.35,369.72,219.83Z" fill="#a4c639"/><path d="M300.87,53A112.26,112.26,0,0,0,197.06,207.77l-132,83,16.4,26.08,131.12-82.5A112.18,112.18,0,1,0,300.87,53Zm68.85,166.85a88,88,0,1,1,19-54.67A87.67,87.67,0,0,1,369.72,219.83Z" fill="#a4c639"/><g opacity="0.4"><path d="M300.87,53A112.26,112.26,0,0,0,197.06,207.77l-132,83,16.4,26.08,131.12-82.5A112.18,112.18,0,1,0,300.87,53Zm68.85,166.85a88,88,0,1,1,19-54.67A87.67,87.67,0,0,1,369.72,219.83Z" fill="#fff"/></g><path d="M159.26,272.77,151,278l-71,44.7-6,3.81A19.56,19.56,0,1,1,53.1,293.34l6.65-4.18,70.08-44.09,8.59-5.41Z" fill="#a4c639"/><g opacity="0.2"><polygon points="159.26 272.77 151.03 277.95 129.83 245.07 138.42 239.66 159.26 272.77"/></g><g opacity="0.2"><path d="M80,322.65l-6,3.81A19.56,19.56,0,1,1,53.1,293.34l6.65-4.18C59,298.4,60.45,315.48,80,322.65Z"/></g><g opacity="0.2"><rect x="52.49" y="272.45" width="87.17" height="1" transform="translate(-133.28 96.51) rotate(-33.04)"/></g><g opacity="0.2"><rect x="53.6" y="279.04" width="89.91" height="1" transform="translate(-138.51 101.62) rotate(-33.69)"/></g><g opacity="0.2"><rect x="56.55" y="284.98" width="90.68" height="1" transform="translate(-141.39 104.66) rotate(-33.74)"/></g><g opacity="0.2"><rect x="61.04" y="290.79" width="89.97" height="1" transform="translate(-141.67 104.9) rotate(-33.04)"/></g><g opacity="0.2"><rect x="67.47" y="295.82" width="87.17" height="1" transform="translate(-145.57 111.16) rotate(-33.64)"/></g><rect x="511.16" y="382.51" width="209.8" height="132.39" transform="translate(-141.82 368.14) rotate(-30)" fill="#e6e6e6"/><polygon points="625.07 469.53 492.09 444.35 492.28 443.36 624.43 468.39 673.34 338.76 674.27 339.11 625.07 469.53" fill="#f2f2f2"/><rect x="520.55" y="509.22" width="100.73" height="1" transform="translate(-65.4 935) rotate(-75.52)" fill="#f2f2f2"/><rect x="689.15" y="391.63" width="1" height="102.87" transform="translate(114.93 1027.55) rotate(-78.2)" fill="#f2f2f2"/><rect x="275.67" y="592.55" width="22.91" height="14.29" fill="#b65052"/><rect x="180.79" y="577.22" width="21.93" height="20.21" transform="translate(280.8 -24.06) rotate(26.37)" fill="#b65052"/><path d="M273.61,621.51h51.94a1,1,0,0,0,.75-1.55c-1.59-2-5.52-5.45-14.72-8.23a21.28,21.28,0,0,1-9.27-6.82s-.39-3.73-10-.9a33.5,33.5,0,0,1-14,.51s-4.76-4.24-4.37,5.8Z" fill="#ffffff"/><rect x="273.61" y="621.51" width="51.87" height="2.96" fill="#a4c639"/><path d="M170.52,606.47,220,622.18a1,1,0,0,0,1.18-1.25c-.91-2.36-3.61-6.87-11.54-12.3a21.28,21.28,0,0,1-6.77-9.31s.76-3.67-9.29-3.89a33.58,33.58,0,0,1-13.53-3.76s-3.26-5.48-5.92,4.2Z" fill="#ffffff"/><rect x="168.86" y="614.24" width="51.87" height="2.96" transform="translate(195.42 -30.08) rotate(17.61)" fill="#a4c639"/><path d="M228.82,402.32l-10.56,16s-3.86,62.55-7.72,85.08L184.41,576,219.55,596s24.33-35.4,37.07-77.36c0,0,6.43-19.94,8.36-32.69a643.29,643.29,0,0,1,.91,86.88l-.65,23.43,41.19.64s7.85-64.61,7.72-93.31l-2.39-102.14-21.42-13.06-52.26,4.51Z" fill="#a4c639"/><g opacity="0.2"><path d="M265,486s8.76-43.37,10.56-55.21l7.59,31.79-15.94,74.83S266.53,502.72,265,486Z"/></g><g opacity="0.2"><path d="M191.35,579.87l-1.88-.67,28.61-79.34c5.31-22.62,9.7-85.52,9.74-86.15l2,.14c0,.63-4.45,63.79-9.81,86.52l0,.11Z"/></g><g opacity="0.2"><rect x="204.96" y="556.32" width="2" height="42.23" transform="translate(-396.21 462.35) rotate(-59.55)"/></g><g opacity="0.2"><rect x="265.65" y="584.93" width="42.14" height="2"/></g><g opacity="0.2"><path d="M272.8,596.08l-2-.1c.05-1.06,5.5-105.93-2.37-130.88l1.91-.6C278.33,489.79,273,591.75,272.8,596.08Z"/></g><g opacity="0.2"><rect x="264.58" y="417.44" width="24.83" height="2" transform="translate(-171.02 644.49) rotate(-83.27)"/></g><g opacity="0.2"><path d="M276.6,427.56l-.72-1.86c8.91-3.45,7.81-19.79,7.8-20l2-.14C285.73,406.33,286.88,423.59,276.6,427.56Z"/></g><g opacity="0.2"><path d="M311.84,414.38c-16-2.26-17.13-8.95-17.18-9.23l2-.31c0,.06,1.2,5.54,15.48,7.56Z"/></g><g opacity="0.2"><path d="M229.2,415.92l-.36-2,8.84-1.59a14.53,14.53,0,0,0,7.63-3.92,45.6,45.6,0,0,0,3.66-4.05l1.58,1.23a48.43,48.43,0,0,1-3.84,4.25,16.61,16.61,0,0,1-8.67,4.46Z"/></g><rect x="329.16" y="155.58" width="247.06" height="474.23" rx="22.86" fill="#381f9c"/><rect x="336.89" y="163.11" width="231.79" height="458.56" rx="21.75" fill="#ffffff"/><g opacity="0.4"><rect x="336.89" y="163.11" width="231.79" height="458.56" rx="21.75" fill="#fff"/></g><polygon points="411.61 434.67 407.39 454.96 488.74 454.56 515.86 563.02 549 447.93 458.21 448.33 457.41 434.87 411.61 434.67" fill="#ffffff"/><g opacity="0.2"><polygon points="411.61 434.67 407.39 454.96 488.74 454.56 515.86 563.02 549 447.93 458.21 448.33 457.41 434.87 411.61 434.67"/></g><g opacity="0.4"><rect x="377.27" y="319.78" width="155.46" height="7.63" rx="3.82" fill="#fff"/></g><g opacity="0.4"><rect x="377.27" y="366.38" width="155.46" height="7.63" rx="3.82" fill="#fff"/></g><g opacity="0.4"><rect x="377.27" y="414.39" width="155.46" height="7.63" rx="3.82" fill="#fff"/></g><rect x="356.17" y="220.76" width="199.65" height="36.15" rx="18.08" fill="#fff"/><path d="M371,242.05a5,5,0,1,1,5-5A5,5,0,0,1,371,242.05Zm0-9.64a4.62,4.62,0,1,0,4.62,4.62A4.62,4.62,0,0,0,371,232.41Z" fill="#381f9c"/><path d="M378.47,245.06a.22.22,0,0,1-.15-.06l-4-4.46a.21.21,0,0,1,0-.29.22.22,0,0,1,.29,0l4,4.46a.19.19,0,0,1,0,.28A.19.19,0,0,1,378.47,245.06Z" fill="#381f9c"/><path d="M371.34,180.59H353.86a4.52,4.52,0,0,1,0-9h17.48a4.52,4.52,0,1,1,0,9ZM353.86,172a4.12,4.12,0,0,0,0,8.23h17.48a4.12,4.12,0,1,0,0-8.23Z" fill="#381f9c"/><path d="M349.75,202.28a.24.24,0,0,1-.14-.05L343.79,197a.21.21,0,0,1-.07-.15.22.22,0,0,1,.06-.15l6.23-6.22a.2.2,0,0,1,.28.28l-6.08,6.08,5.67,5.08a.2.2,0,0,1,0,.28A.19.19,0,0,1,349.75,202.28Z" fill="#381f9c"/><path d="M312,335l2.32,65.51c-30,11.58-85.46,1.8-85.46,1.8l-6.44-69.76-20.08-8.23c4.89-19.44,20.21-38.75,20.21-38.75,7.34-10.06,26.15-14,34-15.18,2.2-.35,3.54-.48,3.54-.48l21.25,2.49a29.4,29.4,0,0,1,8.15,1.55c17.09,5.81,24.56,25.65,24.56,25.65l10.56,30.76Z" fill="#ffffff"/><g opacity="0.4"><path d="M289.46,274c-2.44,5.89-9.8,9.6-17.9,8.56-7.81-1-13.83-6.09-15-12.12,2.2-.35,3.54-.48,3.54-.48l21.25,2.49A29.4,29.4,0,0,1,289.46,274Z" fill="#fff"/></g><g opacity="0.2"><path d="M202.3,324.33l25.57,1.38a7.08,7.08,0,0,0,5-1.74l20-17.41-16.35,30.77-4.12-1s.52,27.8,6.05,43.37c0,0,8.7,21.7,23.2,26.16,0,0-25.52-1.58-32.85-3.51l-6.44-69.76Z"/></g><g opacity="0.2"><path d="M312,335s-1.67-24.84-5.53-34.24a83.78,83.78,0,0,1,9.27,23s1,6.08,8.2,4.72l.68,1.84Z"/></g><path d="M321.1,331.4l6.75,18.17A10.31,10.31,0,0,0,330,353l26.28,28.11s1.41-1.55,9.52-1.55l9.17-.42a1,1,0,0,1,.83,1.72c-1.31,1.48-3.91,3.46-8.84,4.36,0,0,25.61,14,14.8,15.19,0,0,4,3.86-1.54,4.12,0,0,1.41,4.51-5.92,2.57,0,0,0,3.74-6.18.91,0,0-14.93-5.54-18.92-12.36L313.3,375.11,312,335Z" fill="#b65052"/><path d="M313.3,375.31S312.35,340,312,335l9.14-3.61,1.88,5s-3.91,29.19-1.16,43.53Z" fill="#a53742"/><path d="M360.49,402.05a.51.51,0,0,1-.43-.24.49.49,0,0,1,.17-.69,30.23,30.23,0,0,0,10.11-11.38.49.49,0,0,1,.67-.22.5.5,0,0,1,.22.67A30.54,30.54,0,0,1,360.74,402,.47.47,0,0,1,360.49,402.05Z" fill="#a53742"/><path d="M381.72,400.89a.45.45,0,0,1-.27-.08l-12.13-7.87a.5.5,0,0,1,.55-.84L382,400a.49.49,0,0,1,.15.69A.48.48,0,0,1,381.72,400.89Z" fill="#a53742"/><path d="M380.18,405a.5.5,0,0,1-.27-.08l-13.1-8.51a.5.5,0,1,1,.54-.84l13.1,8.51a.5.5,0,0,1,.15.69A.51.51,0,0,1,380.18,405Z" fill="#a53742"/><path d="M374.26,407.58a.48.48,0,0,1-.26-.07l-11.62-7a.49.49,0,0,1-.17-.69.5.5,0,0,1,.68-.17l11.63,7a.5.5,0,0,1-.26.92Z" fill="#a53742"/><path d="M360.94,389.11a13.66,13.66,0,0,1-2.87-.33.5.5,0,1,1,.2-1c6.81,1.43,8.16-2.7,8.17-2.74a.51.51,0,0,1,.63-.33.5.5,0,0,1,.33.62S366.18,389.11,360.94,389.11Z" fill="#a53742"/><path d="M264.65,251.11l-4.43,20.83s7.85,8.88,21.37,4.51L283,262l-15.2-12.41Z" fill="#b65052"/><path d="M283,262l-.81,8.27S272.06,268.71,270.1,260Z" fill="#a53742"/><path d="M291.76,237.71s4,29.86-9.27,27a28.41,28.41,0,0,1-9.09-2,9.4,9.4,0,0,1-5.63-8.86l.17-9.32,2.32-.65,7.85-10.16Z" fill="#b65052"/><path d="M269.75,221.62s-18.41-.38-11.26,22.21a7.18,7.18,0,0,1,.35,2l.22,8.22a5.92,5.92,0,0,0,6.59-2.11l4.61-8.06,7.85-10.16,16.8,5.05a4.15,4.15,0,0,0,5.34-3.59c.37-4.28-.78-10.5-8.88-14.71a21.49,21.49,0,0,0-14-2.15A19.06,19.06,0,0,0,269.75,221.62Z" fill="#6b210e"/><ellipse cx="266.72" cy="246.52" rx="4.05" ry="5.47" fill="#b65052"/><path d="M208.39,326.57l-4,21.05s-1.93,4.12,1.16,18.66c0,0,12.49,39.9,12.49,40.42s-.52,7.21.25,11.58c0,0-4-.38.78,7.08,0,0,2.83,3.86,5.79,2.32,0,0,1.8,2.19,6.69,1,0,0,.64,3.22,4.12,1.41l5-5.79s1.67-1.67-.52-4.89l-8-12.23s-1.67-39.38-5.53-46.59l5.79-24.32Z" fill="#b65052"/><polygon points="208.39 326.57 207.23 332.36 229.74 346.43 232.42 336.3 208.39 326.57" fill="#a53742"/><rect x="222.97" y="423.32" width="5.51" height="1" transform="translate(-248.03 345.57) rotate(-52.58)" fill="#a53742"/><rect x="226.09" y="424.48" width="6.36" height="1" transform="translate(-249.32 360.78) rotate(-54.01)" fill="#a53742"/><rect x="231.39" y="425.18" width="5.92" height="1" transform="translate(-234.45 297.83) rotate(-45.91)" fill="#a53742"/><polygon points="349.35 451.54 489.14 451.95 515.86 563.02 376.86 562.22 349.35 451.54" fill="#ffffff"/><ellipse cx="405.79" cy="497.04" rx="5.82" ry="6.33" fill="#fff"/><ellipse cx="451.18" cy="496.64" rx="5.82" ry="6.33" fill="#fff"/><path d="M437.32,503.16a.22.22,0,0,1-.15-.06c-3.78-4.1-7.44-6-10.88-5.54-4.75.59-7.44,5.45-7.47,5.5a.2.2,0,0,1-.27.08.19.19,0,0,1-.08-.27c0-.05,2.81-5.09,7.77-5.71,3.57-.44,7.35,1.46,11.23,5.67a.2.2,0,0,1,0,.28A.19.19,0,0,1,437.32,503.16Z" fill="#fff"/><path d="M578.26,629.91H720.64a5.33,5.33,0,0,0,5.32-5.32V526.92a6.25,6.25,0,0,0-2.43-4.94l-68.15-52.55a9.34,9.34,0,0,0-11.46.06L576.06,522.8a6.26,6.26,0,0,0-2.38,4.86l-.74,96.89A5.33,5.33,0,0,0,578.26,629.91Z" fill="#a4c639"/><g opacity="0.2"><path d="M630.75,578.49l-49.07-46.81a4,4,0,0,1,.28-6.09L647.14,474a4,4,0,0,1,5,0l65.7,51.2a4,4,0,0,1,.29,6.12l-49.81,47Z"/></g><g opacity="0.2"><path d="M572.88,623.31a.47.47,0,0,1-.39-.2.5.5,0,0,1,.09-.7l57.86-44.32a.5.5,0,1,1,.61.79l-57.86,44.33A.5.5,0,0,1,572.88,623.31Z"/></g><g opacity="0.2"><path d="M726,625.09a.53.53,0,0,1-.31-.11L668,578.68a.51.51,0,0,1-.08-.71.49.49,0,0,1,.7-.07l57.65,46.3a.5.5,0,0,1,.08.7A.53.53,0,0,1,726,625.09Z"/></g><polygon points="600.75 549.58 600.75 489.51 670.12 489.51 698.04 518.63 698.44 549.97 668.31 578.29 630.75 578.49 600.75 549.58" fill="#f2f2f2"/><path d="M813.27,556.73l-66.5,66.11A24,24,0,0,1,714.15,624l-8.48-7.35-6.4-5.55a5.57,5.57,0,0,1-.36-8.08l25.85-26.78a5.57,5.57,0,0,1,7.81-.21l7.93,7.4,7,6.51a2.47,2.47,0,0,0,3.45-.08l29.85-30.57a2.76,2.76,0,0,0,.07-3.77l-5.27-5.81-7.36-8.11a5.23,5.23,0,0,1,.13-7.17l27.51-28.15a5.23,5.23,0,0,1,7.34-.13l7.66,7.27,1.91,1.8A29,29,0,0,1,813.27,556.73Z" fill="#ffffff"/><g opacity="0.2"><path d="M810.87,513.38l-35.28,36.29-7.36-8.11a5.23,5.23,0,0,1,.13-7.17l27.51-28.15a5.23,5.23,0,0,1,7.34-.13Z"/></g><g opacity="0.2"><path d="M740.5,583.39l-34.83,33.22-6.4-5.55a5.57,5.57,0,0,1-.36-8.08l25.85-26.78a5.57,5.57,0,0,1,7.81-.21Z"/></g><path d="M703.54,615.41a.2.2,0,0,1-.14-.06.19.19,0,0,1,0-.28l19.83-20.31a.19.19,0,0,1,.28,0,.2.2,0,0,1,0,.28l-19.84,20.31A.2.2,0,0,1,703.54,615.41Z" fill="#fff"/><path d="M785.84,532.43a.18.18,0,0,1-.14-.06.19.19,0,0,1,0-.28l22.14-21.46a.19.19,0,0,1,.28,0,.21.21,0,0,1,0,.29L786,532.38A.24.24,0,0,1,785.84,532.43Z" fill="#fff"/><polygon points="670.12 489.51 668.91 518.23 698.04 518.63 670.12 489.51" fill="#e6e6e6"/><circle cx="738.51" cy="474.94" r="28.42" fill="#a4c639"/><path d="M755.74,476a7.34,7.34,0,1,0-7.25,4.07l-1,6.87C752.77,481.57,754.9,477.92,755.74,476Z" fill="#ffffff"/><path d="M732.24,474a7.26,7.26,0,0,0,.75-3.22,7.34,7.34,0,1,0-8,7.3l-1,6.86C729.27,479.56,731.4,475.91,732.24,474Z" fill="#ffffff"/></svg>