<svg xmlns="http://www.w3.org/2000/svg" version="1.1" xmlns:xlink="http://www.w3.org/1999/xlink" xmlns:svgjs="http://svgjs.dev/svgjs" width="1440" height="100" preserveAspectRatio="none" viewBox="0 0 1440 200">
  <g mask="url(&quot;#SvgjsMask1103&quot;)" fill="none">
    <path d="M0 66.93L10 79.41L20 87.9L30 96.24L40 107.31L50 82.74L60 77.42L70 57.16L80 61.91L90 53.34L100 67.62L110 68.12L120 76.22L130 75.65L140 81.65L150 77.86L160 96.24L170 116.51L180 91.92L190 88.49L200 88.96L210 112.18L220 122.62L230 132.07L240 152.32L250 152.84L260 147.25L270 153.89L280 166.61L290 173.81L300 160.5L310 140.32L320 160.73L330 158.2L340 169.38L350 178.51L360 164.14L370 180.01L380 186.17L390 186.92L400 166.01L410 141.47L420 133.45L430 145.82L440 169.1L450 147.49L460 135.22L470 136.14L480 155.37L490 152.23L500 135.14L510 111.84L520 113.83L530 105.64L540 127.19L550 127.92L560 110.35L570 115.38L580 128.67L590 150.72L600 157.05L610 179.86L620 159.32L630 137.04L640 129.26L650 140.9L660 143.81L670 127.53L680 136.81L690 136.11L700 114.88L710 95.57L720 100.84L730 96.35L740 117.02L750 95.41L760 72.21L770 50.57L780 64.28L790 58.62L800 64.29L810 79.95L820 60.96L830 67.09L840 50.84L850 28.49L860 45.69L870 39.69L880 46.39L890 65L900 50.21L910 68.86L920 68.75L930 75.6L940 63.96L950 50.3L960 49.61L970 40.12L980 23.69L990 45.93L1000 37.43L1010 24.8L1020 7.52L1030 0.28L1040 14.77L1050 11.43L1060 35.05L1070 30.27L1080 33.12L1090 39.77L1100 26.13L1110 9.71L1120 16.09L1130 9.71L1140 12.19L1150 15.56L1160 36.84L1170 29.49L1180 29.84L1190 24.7L1200 30L1210 36.33L1220 27.41L1230 26.45L1240 5.76L1250 24.27L1260 49.01L1270 63.7L1280 67.37L1290 62.86L1300 46.72L1310 53.84L1320 76.62L1330 82.47L1340 60.2L1350 41.5L1360 27L1370 47.63L1380 64.45L1390 71.13L1400 82.94L1410 101.37L1420 122.05L1430 105.91L1440 111.75" stroke="rgba(164, 198, 57, 1)" stroke-width="1"></path>
    <path d="M0 66.93L10 79.41L20 87.9L30 96.24L40 107.31L50 82.74L60 77.42L70 57.16L80 61.91L90 53.34L100 67.62L110 68.12L120 76.22L130 75.65L140 81.65L150 77.86L160 96.24L170 116.51L180 91.92L190 88.49L200 88.96L210 112.18L220 122.62L230 132.07L240 152.32L250 152.84L260 147.25L270 153.89L280 166.61L290 173.81L300 160.5L310 140.32L320 160.73L330 158.2L340 169.38L350 178.51L360 164.14L370 180.01L380 186.17L390 186.92L400 166.01L410 141.47L420 133.45L430 145.82L440 169.1L450 147.49L460 135.22L470 136.14L480 155.37L490 152.23L500 135.14L510 111.84L520 113.83L530 105.64L540 127.19L550 127.92L560 110.35L570 115.38L580 128.67L590 150.72L600 157.05L610 179.86L620 159.32L630 137.04L640 129.26L650 140.9L660 143.81L670 127.53L680 136.81L690 136.11L700 114.88L710 95.57L720 100.84L730 96.35L740 117.02L750 95.41L760 72.21L770 50.57L780 64.28L790 58.62L800 64.29L810 79.95L820 60.96L830 67.09L840 50.84L850 28.49L860 45.69L870 39.69L880 46.39L890 65L900 50.21L910 68.86L920 68.75L930 75.6L940 63.96L950 50.3L960 49.61L970 40.12L980 23.69L990 45.93L1000 37.43L1010 24.8L1020 7.52L1030 0.28L1040 14.77L1050 11.43L1060 35.05L1070 30.27L1080 33.12L1090 39.77L1100 26.13L1110 9.71L1120 16.09L1130 9.71L1140 12.19L1150 15.56L1160 36.84L1170 29.49L1180 29.84L1190 24.7L1200 30L1210 36.33L1220 27.41L1230 26.45L1240 5.76L1250 24.27L1260 49.01L1270 63.7L1280 67.37L1290 62.86L1300 46.72L1310 53.84L1320 76.62L1330 82.47L1340 60.2L1350 41.5L1360 27L1370 47.63L1380 64.45L1390 71.13L1400 82.94L1410 101.37L1420 122.05L1430 105.91L1440 111.75L1440 200L0 200z" fill="url(&quot;#SvgjsLinearGradient1104&quot;)"></path>
  </g>
  <defs>
    <mask id="SvgjsMask1103">
      <rect width="1440" height="200" fill="#ffffff"></rect>
    </mask>
    <linearGradient x1="50%" y1="0%" x2="50%" y2="100%" id="SvgjsLinearGradient1104">
      <stop stop-opacity="0.65" stop-color="rgba(164, 198, 57, 1)" offset="0"></stop>
      <stop stop-opacity="0" stop-color="#f4f8e7" offset="0.8"></stop>
    </linearGradient>
  </defs>
</svg>